Coordinates
version=1
nRows=6
nColumns=63
inDegrees=yes

Units are S.I. units (second, meters, Newtons, ...)
If the header above contains a line with 'inDegrees', this indicates whether rotational values are in degrees (yes) or radians (no).

endheader
time	pelvis_tilt	pelvis_list	pelvis_rotation	pelvis_tx	pelvis_ty	pelvis_tz	hip_flexion_r	hip_adduction_r	hip_rotation_r	knee_angle_r	knee_angle_r_beta	ankle_angle_r	subtalar_angle_r	mtp_angle_r	hip_flexion_l	hip_adduction_l	hip_rotation_l	knee_angle_l	knee_angle_l_beta	ankle_angle_l	subtalar_angle_l	mtp_angle_l	L5_S1_Flex_Ext	L5_S1_Lat_Bending	L5_S1_axial_rotation	L4_L5_Flex_Ext	L4_L5_Lat_Bending	L4_L5_axial_rotation	L3_L4_Flex_Ext	L3_L4_Lat_Bending	L3_L4_axial_rotation	L2_L3_Flex_Ext	L2_L3_Lat_Bending	L2_L3_axial_rotation	L1_L2_Flex_Ext	L1_L2_Lat_Bending	L1_L2_axial_rotation	L1_T12_Flex_Ext	L1_T12_Lat_Bending	L1_T12_axial_rotation	Abs_r3	Abs_r2	Abs_r1	Abs_t1	Abs_t2	neck_flexion	neck_bending	neck_rotation	arm_flex_r	arm_add_r	arm_rot_r	elbow_flex_r	pro_sup_r	wrist_flex_r	wrist_dev_r	arm_flex_l	arm_add_l	arm_rot_l	elbow_flex_l	pro_sup_l	wrist_flex_l	wrist_dev_l
3.316667	3.091534	0.826536	87.170115	0.211299	0.523393	1.011737	-1.761443	5.492600	11.520286	14.448859	0.252180	36.032657	-12.028870	0.000000	2.453604	-1.899361	6.250356	23.577997	0.411514	42.815224	-11.372657	0.000000	-0.142463	0.372211	0.904674	-0.264567	0.495041	0.961216	-0.234052	0.904995	0.961216	-0.162821	0.904995	0.791590	-0.132291	0.759013	0.735048	-0.081403	0.576555	0.678506	-1.017597	4.210530	5.031526	0.000000	0.000000	17.287714	-3.114485	-17.233816	-6.722342	-11.465707	22.980457	81.184380	50.052716	-8.336784	5.395129	-3.862392	-8.087386	26.659454	80.628006	67.125878	-7.758668	20.364683
3.333333	3.067240	0.893580	87.204388	0.211367	0.523451	1.011875	-1.864722	5.481556	11.663029	14.421834	0.251708	35.871598	-12.224155	0.000000	2.392652	-1.875532	6.292488	23.596600	0.411838	42.693123	-11.552459	0.000000	-0.141375	0.378062	0.843642	-0.262547	0.502822	0.896369	-0.232265	0.919219	0.896369	-0.161577	0.919219	0.738187	-0.131281	0.770943	0.685459	-0.080782	0.585617	0.632731	-1.009826	4.276708	4.692082	0.000000	0.000000	16.976434	-2.483973	-16.986099	-6.449577	-11.623687	23.526407	81.047043	49.572170	-8.564854	4.976612	-4.011277	-7.997203	26.301322	80.597913	67.228141	-7.627616	20.150955
3.350000	3.022854	0.958964	87.204237	0.211430	0.523523	1.011994	-1.991174	5.446365	11.892002	14.339865	0.250278	35.678304	-12.497172	0.000000	2.325346	-1.817034	6.372617	23.601694	0.411927	42.549799	-11.820409	0.000000	-0.140032	0.381264	0.793422	-0.260053	0.507081	0.843011	-0.230058	0.927005	0.843011	-0.160042	0.927005	0.694245	-0.130033	0.777473	0.644656	-0.080014	0.590578	0.595067	-1.000232	4.312933	4.412777	0.000000	0.000000	16.611310	-1.857826	-16.784196	-6.150771	-11.830824	24.148418	80.882025	49.183111	-8.827980	4.569970	-4.164740	-7.902696	25.943993	80.572282	67.479363	-7.485000	19.981759
3.366667	2.968763	1.023759	87.215377	0.211439	0.523601	1.012127	-2.138596	5.388005	12.037455	14.198870	0.247817	35.493201	-12.689756	0.000000	2.269276	-1.745173	6.468071	23.614286	0.412147	42.431245	-12.052471	0.000000	-0.140602	0.382789	0.746909	-0.261112	0.509110	0.793591	-0.230995	0.930714	0.793591	-0.160694	0.930714	0.653545	-0.130563	0.780584	0.606864	-0.080340	0.592941	0.560182	-1.004308	4.330189	4.154084	0.000000	0.000000	16.235473	-1.295999	-16.699957	-5.839637	-12.062333	24.788007	80.704111	48.859529	-9.085132	4.206640	-4.302856	-7.812837	25.613877	80.549895	67.698768	-7.348474	19.837877
3.383333	2.902488	1.072364	87.223676	0.211422	0.523664	1.012249	-2.281196	5.320470	12.249395	14.024802	0.244779	35.289400	-13.000403	0.000000	2.233584	-1.651852	6.603441	23.622455	0.412290	42.327776	-12.301593	0.000000	-0.140525	0.382604	0.705046	-0.260968	0.508863	0.749112	-0.230868	0.930263	0.749112	-0.160606	0.930263	0.616916	-0.130491	0.780206	0.572850	-0.080296	0.592653	0.528785	-1.003753	4.328091	3.921256	0.000000	0.000000	15.833963	-0.850955	-16.759590	-5.539861	-12.297391	25.422686	80.516428	48.605778	-9.314551	3.819997	-4.444703	-7.719417	25.276925	80.548177	68.033507	-7.208529	19.804553
3.400000	2.830731	1.109394	87.232805	0.211376	0.523715	1.012374	-2.418529	5.242016	12.422920	13.820355	0.241211	35.101166	-13.307164	0.000000	2.216798	-1.548420	6.759237	23.629931	0.412420	42.261354	-12.515807	0.000000	-0.141587	0.381883	0.666733	-0.262941	0.507905	0.708404	-0.232613	0.928511	0.708404	-0.161819	0.928511	0.583392	-0.131477	0.778737	0.541721	-0.080903	0.591537	0.500050	-1.011340	4.319942	3.708172	0.000000	0.000000	15.436395	-0.532893	-16.954517	-5.262474	-12.518408	26.006974	80.338752	48.417905	-9.509096	3.451371	-4.580259	-7.623111	24.946260	80.563938	68.381116	-7.088119	19.855216
